<?xml version="1.0"?>
<svg xmlns="http://www.w3.org/2000/svg" id="Capa_1" enable-background="new 0 0 512 512" height="512px" viewBox="0 0 512 512" width="512px" class=""><g><path d="m455.806 443.984h-399.612c-8.284 0-15 6.716-15 15v38.016c0 8.284 6.716 15 15 15h399.611c8.284 0 15-6.716 15-15v-38.016c.001-8.284-6.715-15-14.999-15z" data-original="#000000" class="active-path" data-old_color="#000000" fill="#00008B"/><path d="m56.194 419.196h399.611c8.284 0 15-6.716 15-15 0-57.377-22.344-111.319-62.915-151.891-37.015-37.015-85.162-58.848-136.891-62.393v-28.192h18.968c8.284 0 15-6.716 15-15s-6.716-15-15-15h-67.936c-8.284 0-15 6.716-15 15s6.716 15 15 15h18.969v28.193c-51.729 3.545-99.875 25.377-136.891 62.393-40.571 40.571-62.915 94.514-62.915 151.891 0 8.283 6.716 14.999 15 14.999z" data-original="#000000" class="active-path" data-old_color="#000000" fill="#00008B"/><path d="m254.979 62.103c-21.231.168-40.728 8.182-53.487 21.986-5.624 6.083-5.251 15.573.833 21.196 2.886 2.668 6.536 3.985 10.178 3.985 4.037 0 8.063-1.62 11.019-4.818 7.16-7.746 18.713-12.248 31.695-12.351 13.327-.098 25.842 4.576 33.424 12.523 5.719 5.995 15.215 6.218 21.207.498 5.994-5.718 6.217-15.213.498-21.207-13.248-13.887-33.142-21.815-54.673-21.815-.23.001-.463.001-.694.003z" data-original="#000000" class="active-path" data-old_color="#000000" fill="#00008B"/><path d="m176.795 60.147c3.976 0 7.943-1.57 10.894-4.685 15.131-15.975 39.485-25.254 66.819-25.459.301-.003.6-.004.899-.004 27.603 0 53.367 9.547 69.061 25.625 5.787 5.928 15.284 6.041 21.212.257 5.929-5.787 6.043-15.283.257-21.212-21.541-22.067-54.467-34.669-90.494-34.669-.384 0-.775.002-1.16.004-35.451.267-67.663 12.961-88.376 34.828-5.696 6.015-5.439 15.509.575 21.206 2.901 2.747 6.611 4.109 10.313 4.109z" data-original="#000000" class="active-path" data-old_color="#000000" fill="#00008B"/></g> </svg>
