<?xml version="1.0"?>
<svg xmlns="http://www.w3.org/2000/svg" id="Capa_1" enable-background="new 0 0 512 512" height="512px" viewBox="0 0 512 512" width="512px"><g><path d="m0 400.092c0 24.863 20.228 45.091 45.091 45.091h421.818c24.863 0 45.091-20.228 45.091-45.091v-178.275h-512zm316-104.092h121c8.284 0 15 6.716 15 15s-6.716 15-15 15h-121c-8.284 0-15-6.716-15-15s6.716-15 15-15zm0 60h121c8.284 0 15 6.716 15 15s-6.716 15-15 15h-121c-8.284 0-15-6.716-15-15s6.716-15 15-15zm-209.325-61.675c20.49 0 37.925 13.277 44.188 31.675h19.988v-10.713c0-8.284 6.716-15 15-15s15 6.716 15 15v10.713h17.496v-10.713c0-8.284 6.716-15 15-15s15 6.716 15 15v10.713h7.653c8.284 0 15 6.716 15 15s-6.716 15-15 15h-105.136c-6.263 18.398-23.698 31.676-44.188 31.676-25.738 0-46.676-20.939-46.676-46.676 0-25.736 20.938-46.675 46.675-46.675z" data-original="#000000" class="active-path" data-old_color="#000000" fill="#FFD700"/><path d="m106.675 324.325c-9.195 0-16.675 7.481-16.675 16.675 0 9.195 7.48 16.676 16.675 16.676s16.675-7.48 16.675-16.676c.001-9.194-7.48-16.675-16.675-16.675z" data-original="#000000" class="active-path" data-old_color="#000000" fill="#FFD700"/><path d="m0 151.817h512v40h-512z" data-original="#000000" class="active-path" data-old_color="#000000" fill="#FFD700"/><path d="m512 111.908c0-24.863-20.228-45.091-45.091-45.091h-421.818c-24.863 0-45.091 20.228-45.091 45.091v9.909h512z" data-original="#000000" class="active-path" data-old_color="#000000" fill="#FFD700"/></g> </svg>
